<?xml version="1.0" encoding="UTF-8"?>
<svg id="Layer_2" xmlns="http://www.w3.org/2000/svg" viewBox="0 0 177.59 59.74">
  <defs>
    <style>
      .cls-1 {
        fill: #fff;
      }
    </style>
  </defs>
  <g id="Layer_1-2" data-name="Layer_1">
    <g>
      <path class="cls-1" d="M22.86,55.72c-4.67,1.34-10.12-1.98-14.36-3.75-2.83-1.13-4.95-.21-7.57-.78-.92-.21-1.34-1.49-.35-1.84,1.49-.57,4.46,0,6.08.21,6.86.85,14.43.42,21.37.42l.42-.5c6.37-7.15,12.1-15.42,17.48-23.42-.92.28-1.63-.99-.5-1.7.57-.35.71-.42.71-1.2,0-1.98-3.68-3.61-5.24-4.39-5.02-2.55-9.98-2.69-15.42-2.9-.42,0-.92-.28-.92-.78,0-1.42,11.39-1.84,13.44-1.98,5.59-.42,11.18-.71,16.84-.92.35-.35.35-.71.64-1.06.99-1.34,2.33.57,1.42.92,4.95,0,22.15-.85,25.68-.14,1.2.21,1.34,1.63,0,1.84-3.04.42-9.06-.07-12.45-.07-4.74,0-9.48.07-14.22.14-7.64,12.31-16.06,25.26-25.61,36.16,2.55.07,5.17.07,7.71.07,5.66,0,11.32-.07,16.98-.28,2.19,0,4.81-.42,6.93-.21,1.06.14,1.13,1.49,0,1.7-3.47.64-9.69.28-13.44.35-6.58.14-13.16.14-19.74.14-2.26,1.34-2.48,2.97-5.87,3.96ZM11.75,51.4c5.45,2.62,9.34,4.74,14.58.35-4.81.07-9.76-.28-14.58-.35ZM47.97,23.17c1.98-3.04,3.96-6.08,5.87-9.2-6.08,0-12.38.5-18.47,1.13,3.47.85,12.24,3.89,12.59,8.07Z"/>
      <path class="cls-1" d="M66.08,39.66c3.89-1.34,9.83-3.25,13.44-3.54.99-.07,1.49,1.56.07,1.77-4.03.57-8.56,1.63-12.88,3.33,0,.21,0,.42-.07.64-1.06,4.39-12.03,10.12-14.79,9.48-.85-.21-1.13-.64-1.27-1.42-.42-2.26,3.82-4.32,5.59-5.31,2.62-1.56,5.66-2.76,8.21-4.39l-.07-.07c-1.2-.64-3.04-.99-3.96-2.05-4.95-5.59,18.04-13.23,16.49-5.45-.07.42-.42.85-.92.78-1.13-.07-.35-1.34-1.2-1.98-1.13-.85-2.48-.42-3.68-.21-1.49.35-6.86,1.7-8.84,3.68-1.34,1.27-.42,2.33.99,2.83.85.42,2.12.99,2.9,1.91ZM54.34,49.07c2.62-.85,9.91-4.46,10.61-7.22-2.48,1.63-11.32,5.52-12.74,7.5l-.07.35c.64-.28,1.56-.42,2.19-.64Z"/>
      <path class="cls-1" d="M112.71,39.38c-3.11,2.05-7.71,5.02-11.75,5.45-1.77.21-3.61-.5-4.81-1.84-2.97-3.4,1.42-7.78-.71-9.41-1.7-1.27-8.35,2.48-10.12,3.54-3.4,2.05-5.94,4.67-9.06,6.93-.85.64-1.84-.21-1.42-1.06.21-.42.85-1.06,1.13-1.49,1.34-1.77,2.48-3.75,4.1-6.58-1.84-1.13,1.06-2.19,1.84-2.55,8.99-11.89,19.1-22.92,32.26-30.21,1.91-1.06,4.88-2.9,7.15-1.84.35.14.5.5.5.85.07,3.25-3.4,6.72-5.66,8.7-10.19,8.84-21.23,17.55-33.18,23.84l-3.11,4.95c2.69-2.12,13.16-8.63,16.27-6.65,3.96,2.55-.64,6.86,1.13,9.62.92,1.42,2.55,1.63,4.03,1.34,2.19-.35,4.95-1.56,9.27-4.17,1.06-.71,1.98-1.63,3.04-2.26.92-.57,1.77.57.99,1.42-.42.42-1.13.92-1.91,1.42ZM115.47,8.24c1.91-1.7,4.1-3.75,4.53-6.44-1.13-.35-3.33.85-4.25,1.42-10.61,6.37-21.23,14.93-28.58,25.05-.5.64-.92,1.27-1.49,1.91,9.98-4.95,21.37-14.5,29.79-21.93Z"/>
      <path class="cls-1" d="M116.6,43.05c5.09-.92,9.2-3.96,14.43-6.58.85-.42,1.63,1.06.57,1.63-5.73,3.25-8.7,4.67-13.94,6.51-1.34.5-2.55.64-3.89.28-5.09-1.27-.14-9.48,1.98-11.6.78-.71,1.98.21,1.27,1.13-4.03,6.08-5.73,9.62-.42,8.63ZM117.87,29.89c.35-.42.85-.92,1.56-1.42.57-.57,1.27-.14,1.49.35.14.35-.07.64-.5,1.06-.5.35-.92.78-1.34,1.13-.78.78-1.84-.21-1.2-1.13Z"/>
      <path class="cls-1" d="M138.96,27.84c-4.1,4.81-14.5,18.82-18.47,23.7-2.12,2.48-4.17,5.73-6.51,7.92-.35.28-.92.42-1.2,0-.57-.35-.28-.78,0-1.13,5.8-7.57,18.4-24.06,24.55-31.34-.28-.35-.57-1.13.14-1.27.92-.64,1.2-1.84.92-2.83-.64-2.26-4.25-3.75-6.37-4.25-3.11-.71-6.44-.14-9.62-.5-.5-.07-.71-.28-.78-.78l.57-.92c2.05.14,4.1-.28,6.23-.07,5.73.5,11.53.57,17.26.78,2.19-2.05,1.77-1.7,3.68-3.89,1.98-2.26,4.03-5.02,6.3-7,.85-.78,1.77.28,1.2,1.2-1.49,2.33-6.51,6.79-9.06,9.69l1.84.14c4.03.21,14.29.07,17.41.64,1.13.21,1.2,1.63,0,1.77-2.97.35-16.42-.71-20.45-.85-2.62,2.9-5.09,6.01-7.64,8.99ZM140.23,23.6l4.03-4.74c-2.55-.35-5.31-.28-7.85-.28,1.98.78,3.82,2.83,3.82,5.02Z"/>
      <path class="cls-1" d="M143.27,42.84c-.92-.07-1.84-.57-2.26-1.42-1.84-3.33,6.79-8.35,9.2-9.69,2.83-1.56,7.71-3.25,10.97-3.25,1.91,0,4.03.85,4.53,2.83.92,3.68-3.61,4.67-3.61,2.9,0-.5.42-.99.92-.78.64,0,.99-.64,1.2-1.13-.07-5.38-13.16.78-15.14,1.91-1.13.64-6.79,4.88-6.58,6.23.14,1.56,3.18-.07,3.75-.28,1.77-.71,3.33-1.49,5.02-2.33,3.33-1.7,6.3-4.03,9.55-5.73.92-.5,1.7.71.99,1.42-1.27,1.34-6.93,6.93-3.68,8.35,4.46,1.91,14.93-3.89,18.18-5.73.42-.21.92-.21,1.13.21.28.5.14.99-.35,1.27-4.88,2.83-13.51,6.65-17.9,6.37-1.2-.07-2.48-.78-3.25-1.7-1.42-1.77-.07-4.03.99-5.66-2.33,1.42-11.32,6.37-13.66,6.23Z"/>
    </g>
  </g>
</svg>