<?xml version="1.0" encoding="UTF-8"?>
<svg id="Layer_2" xmlns="http://www.w3.org/2000/svg" viewBox="0 0 44.97 44.97">
  <defs>
    <style>
      .cls-1 {
        fill: #1ed660;
      }
    </style>
  </defs>
  <g id="Layer_1-2" data-name="Layer_1">
    <g>
      <path class="cls-1" d="M44.97,21.56v1.86s-.02.04-.02.07c-.04.93-.14,1.85-.29,2.76-.29,1.73-.77,3.4-1.46,5.01-1.41,3.29-3.47,6.09-6.2,8.41-1.75,1.49-3.69,2.67-5.81,3.56-2.16.91-4.42,1.46-6.76,1.66-1.42.12-2.84.11-4.26-.03-1.21-.12-2.4-.34-3.57-.66-2.39-.65-4.62-1.67-6.67-3.06-2.96-2.01-5.32-4.57-7.07-7.69C1.26,30.6.34,27.56.07,24.31c-.1-1.27-.1-2.53.01-3.8.1-1.15.28-2.28.56-3.4.93-3.73,2.69-7.01,5.28-9.84,1.97-2.15,4.28-3.86,6.92-5.11C15.53.89,18.36.19,21.32.03c1.48-.08,2.96,0,4.42.2,1.43.21,2.83.55,4.19,1.03,4,1.43,7.36,3.78,10.03,7.08,3.02,3.74,4.67,8.01,4.97,12.81,0,.13-.01.27.04.4ZM19,11.73c-.76,0-1.51.03-2.27.06-1.24.06-2.47.18-3.7.35-1.5.21-2.99.52-4.45.95-.43.13-.82.33-1.11.68-.45.53-.58,1.14-.5,1.81.1.89.82,1.65,1.69,1.8.45.08.87,0,1.3-.12,1.83-.54,3.7-.84,5.6-1.01,1.01-.09,2.01-.14,3.02-.15,2.08-.03,4.16.1,6.22.37,1.46.19,2.91.46,4.34.82,1.46.37,2.89.83,4.27,1.42.82.35,1.61.77,2.39,1.21.8.46,1.6.4,2.34-.14.94-.69.98-1.89.62-2.73-.2-.46-.56-.76-.98-1-.94-.54-1.91-1.02-2.91-1.44-2.65-1.11-5.41-1.83-8.24-2.29-1.31-.21-2.63-.36-3.96-.46-1.22-.09-2.44-.13-3.66-.13ZM19.07,19.46c-1.12,0-1.89.02-2.67.07-1.03.07-2.05.19-3.06.36-1.15.2-2.28.47-3.4.78-.33.09-.64.22-.9.46-.37.33-.51.76-.56,1.24-.12,1.15.86,2.1,2.01,1.94.25-.03.48-.12.72-.19,1.93-.53,3.9-.84,5.9-.95,1.66-.09,3.32-.04,4.97.14,1.34.15,2.66.38,3.97.7,2.17.54,4.25,1.3,6.22,2.36.37.2.73.43,1.11.61.78.35,1.69.08,2.16-.64.45-.68.46-2.04-.68-2.72-1.2-.71-2.44-1.32-3.72-1.84-2.71-1.1-5.53-1.77-8.44-2.1-1.32-.15-2.64-.22-3.62-.22ZM18.92,26.83c-.7,0-1.56.04-2.41.1-1.02.08-2.04.2-3.05.35-.92.14-1.84.32-2.75.51-.8.17-1.21.58-1.3,1.33-.13,1.03.73,1.84,1.74,1.6.93-.22,1.86-.41,2.8-.55,1.5-.23,3.01-.38,4.52-.41,1.79-.04,3.57.08,5.34.41,2.1.4,4.1,1.08,5.99,2.09.4.21.78.45,1.18.66.44.23.9.22,1.34-.02.51-.28.76-.83.69-1.47-.05-.46-.26-.82-.64-1.09-.1-.07-.19-.13-.29-.19-2.45-1.46-5.1-2.4-7.9-2.9-1.68-.3-3.38-.43-5.24-.43Z"/>
      <path d="M19,11.73c1.22,0,2.44.04,3.66.13,1.33.1,2.65.25,3.96.46,2.83.46,5.59,1.18,8.24,2.29,1,.42,1.97.9,2.91,1.44.42.24.79.54.98,1,.36.85.32,2.04-.62,2.73-.74.54-1.54.6-2.34.14-.78-.44-1.57-.86-2.39-1.21-1.38-.59-2.81-1.06-4.27-1.42-1.43-.36-2.88-.63-4.34-.82-2.06-.27-4.14-.4-6.22-.37-1.01.01-2.02.06-3.02.15-1.9.17-3.77.47-5.6,1.01-.42.12-.85.2-1.3.12-.88-.15-1.6-.91-1.69-1.8-.07-.67.05-1.29.5-1.81.3-.35.68-.56,1.11-.68,1.46-.42,2.95-.73,4.45-.95,1.23-.18,2.46-.29,3.7-.35.76-.04,1.51-.06,2.27-.06Z"/>
      <path d="M19.07,19.46c.99,0,2.31.07,3.62.22,2.9.33,5.72,1,8.44,2.1,1.29.52,2.53,1.14,3.72,1.84,1.14.67,1.13,2.03.68,2.72-.47.72-1.38,1-2.16.64-.39-.17-.74-.41-1.11-.61-1.97-1.06-4.05-1.83-6.22-2.36-1.31-.32-2.63-.55-3.97-.7-1.65-.18-3.31-.23-4.97-.14-2,.11-3.97.41-5.9.95-.24.07-.47.15-.72.19-1.15.16-2.12-.79-2.01-1.94.05-.48.19-.91.56-1.24.26-.23.57-.36.9-.46,1.12-.31,2.25-.59,3.4-.78,1.01-.17,2.03-.29,3.06-.36.78-.05,1.56-.07,2.67-.07Z"/>
      <path d="M18.92,26.83c1.86,0,3.56.13,5.24.43,2.8.5,5.45,1.44,7.9,2.9.1.06.2.13.29.19.38.26.59.62.64,1.09.07.64-.18,1.18-.69,1.47-.44.24-.89.25-1.34.02-.4-.21-.78-.44-1.18-.66-1.88-1.01-3.88-1.7-5.99-2.09-1.76-.33-3.54-.45-5.34-.41-1.52.03-3.02.18-4.52.41-.94.15-1.87.33-2.8.55-1.01.24-1.87-.57-1.74-1.6.1-.75.51-1.16,1.3-1.33.91-.19,1.83-.37,2.75-.51,1.01-.16,2.03-.28,3.05-.35.85-.07,1.71-.09,2.41-.1Z"/>
    </g>
  </g>
</svg>