<?xml version="1.0" encoding="UTF-8"?>
<svg id="Layer_2" xmlns="http://www.w3.org/2000/svg" viewBox="0 0 25.95 18.22">
  <defs>
    <style>
      .cls-1 {
        fill: #fff;
      }
    </style>
  </defs>
  <g id="Layer_1-2" data-name="Layer_1">
    <path class="cls-1" d="M12.95,18.18c-2.71,0-5.43.13-8.14-.13-.7-.07-1.39-.18-2.07-.35-1.28-.33-1.95-1.21-2.25-2.45-.34-1.37-.42-2.77-.46-4.18-.06-2.27-.07-4.54.22-6.79.08-.62.21-1.22.41-1.81.35-1.06,1.1-1.66,2.15-1.93C4.07.22,5.37.12,6.66.09c4.1-.12,8.21-.11,12.31-.01,1.36.03,2.72.13,4.06.44,1.36.31,2.1,1.16,2.42,2.47.35,1.41.43,2.86.46,4.3.06,2.23.06,4.45-.22,6.67-.08.62-.21,1.22-.4,1.81-.35,1.08-1.11,1.68-2.18,1.96-1.25.32-2.53.43-3.81.45-2.12.04-4.24,0-6.36,0ZM10.3,12.49c2.34-1.21,4.62-2.4,6.98-3.62-2.36-1.24-4.65-2.44-6.98-3.67v7.28Z"/>
  </g>
</svg>