<?xml version="1.0" encoding="UTF-8"?>
<svg id="Layer_2" xmlns="http://www.w3.org/2000/svg" viewBox="0 0 54.31 38.03">
  <defs>
    <style>
      .cls-1 {
        fill: #fefdfd;
      }

      .cls-2 {
        fill: #fe0000;
      }
    </style>
  </defs>
  <g id="Layer_1-2" data-name="Layer_1">
    <g>
      <path class="cls-2" d="M54.31,14.85v8.06c-.21.14-.1.35-.11.53-.16,2.66-.3,5.33-.85,7.95-.66,3.15-2.56,5.07-5.73,5.68-1.86.35-3.75.47-5.64.57-5.97.32-11.94.44-17.92.35-5.62-.08-11.24-.13-16.83-.86-1.97-.26-3.64-1.05-4.91-2.62-1-1.25-1.36-2.73-1.6-4.26-.44-2.75-.59-5.51-.68-8.29-.15-4.95,0-9.89.79-14.8.34-2.1,1.25-3.84,3.02-5.09,1.24-.88,2.67-1.16,4.14-1.32C11.63.34,15.29.23,18.95.12c6.47-.19,12.94-.15,19.4.1,3.04.12,6.07.26,9.08.73,2.97.46,5.14,2.43,5.83,5.33.5,2.1.68,4.25.84,6.4.05.72,0,1.46.21,2.17ZM35.88,19.02c-4.73-2.72-9.41-5.42-14.12-8.13v16.26c4.72-2.72,9.39-5.41,14.12-8.13Z"/>
      <path class="cls-1" d="M35.88,19.02c-4.73,2.72-9.4,5.41-14.12,8.13V10.89c4.71,2.71,9.39,5.41,14.12,8.13Z"/>
    </g>
  </g>
</svg>