<?xml version="1.0" encoding="UTF-8"?>
<svg id="Layer_2" xmlns="http://www.w3.org/2000/svg" viewBox="0 0 45.92 45.91">
  <g id="Layer_1-2" data-name="Layer_1">
    <g>
      <path d="M21.62,0c.9,0,1.79,0,2.69,0,.1.08.23.07.34.08,3.25.22,6.33,1.08,9.16,2.66,6.43,3.59,10.37,9.01,11.76,16.26.17.86.19,1.74.35,2.61v2.69c-.03.13-.07.26-.08.39-.16,2.37-.64,4.68-1.6,6.85-3.9,8.83-10.69,13.66-20.31,14.32-4.52.31-8.8-.8-12.66-3.18C4.3,38.39.54,32.12.04,23.97c-.25-4.16.64-8.12,2.66-11.77C6.4,5.49,12.06,1.5,19.63.26c.66-.11,1.33-.17,1.99-.26ZM42.07,22.97c0-10.55-8.52-19.09-19.08-19.12-10.54-.03-19.13,8.54-19.14,19.11-.01,10.56,8.57,19.13,19.13,19.12,10.56-.01,19.09-8.55,19.1-19.1Z"/>
      <path d="M19.18,22.99c0-2.23,0-4.45,0-6.68,0-.55.12-1.01.65-1.27.51-.25.95-.08,1.37.23,3.05,2.23,6.11,4.45,9.17,6.67.86.63.87,1.46.01,2.09-3.07,2.23-6.14,4.46-9.21,6.69-.43.31-.88.46-1.38.2-.48-.25-.62-.68-.61-1.2.01-2.24,0-4.48,0-6.72Z"/>
    </g>
  </g>
</svg>