<?xml version="1.0" encoding="UTF-8"?>
<svg id="Layer_2" xmlns="http://www.w3.org/2000/svg" viewBox="0 0 188.28 99.67">
  <defs>
    <style>
      .cls-1 {
        fill: #fff;
      }
    </style>
  </defs>
  <g id="Layer_1-2" data-name="Layer_1">
    <g>
      <path class="cls-1" d="M54.21,63.35c.24-4.95-1.85-8.31-3.63-10.26-1.94-2.11-3.9-3.04-3.99-3.08h-.03c-1.34-.71-2.83-1.15-4.42-1.33-.23-.03-.47-.05-.7-.06.04-3.13.1-5.78.19-9.39.01-.49.03-.96.04-1.44,6.26-3.42,10.51-8.61,12.64-15.42,1.97-6.32,1.42-11.89,1.2-13.44-.43-4.38-3.04-7.52-4.24-8.36-.22-.17-.43-.3-.62-.39l-.21-.11h0c-.11-.03-.22-.06-.32-.07h0c-.44-.05-1.89.28-3.57,1.63-2.46,1.97-5.61,6.26-6.61,15.5h0c-.33,2.13-.49,8.35-.57,13.24-1.46.91-3.04,1.78-4.69,2.6-2.93,1.45-5.52,3.08-7.71,4.86-6.03,4.34-8.55,9.96-9.6,13.9-1.12,4.17-.87,7.42-.85,7.6.11,4.08,1.82,8.68,4.58,12.29,2.35,3.08,6.57,6.9,13.28,7.66,1.59.18,3.26.17,4.96-.02l-.35,7.87c-.2,4.54-1.86,6.38-2.84,7.08-.28.17-.58.33-.9.46l.04.09h0s-.04-.09-.04-.09c-.92.39-1.96.62-2.93.65-.23,0-.46,0-.7-.04-1.82-.2-3.27-1.22-3.95-1.79,2.45-.04,4.56-1.91,4.84-4.41.31-2.72-1.66-5.18-4.38-5.48-2.72-.31-5.18,1.66-5.48,4.38-.02.19-.03.38-.03.58h0c0,.07-.08,1.54.87,3.35,0,0,.07.13.19.34.32.55.72,1.08,1.17,1.57,1.09,1.2,2.98,2.74,5.85,3.29.08.02.16.03.24.04h.06c.16.04.32.06.49.08l.34.04h0c3.64.27,6.33-1.78,7.53-3.66,1-1.57,1.58-3.83,1.77-6.91.02-.34.04-.69.06-1.05.12-1.95.26-4.16.28-6.79,1.93-.51,3.67-1.23,5.16-2.13.01,0,.36-.2.9-.59,1.53-1.08,2.8-2.39,3.76-3.9,1.77-2.59,2.75-5.59,2.91-8.92ZM21.42,52.01c.03-.06,2.73-5.71,11.8-10.43,1.07-.5,2.2-1.01,3.39-1.55l.93-.42c.57-.26,1.15-.52,1.74-.79v9.83c-5.41.48-9.65,3.83-10.82,8.57-1.1,4.47.3,7.61,1.68,9.46,1.49,2,3.21,2.93,3.28,2.97l.69.37-.42-.66s-.2-.32-.46-.83l-.06.03.06-.04-.05-.1c-.44-.87-2.5-5.4-.28-8.82.67-1.04,1.72-1.85,2.96-2.3.76-.27,1.63-.49,2.59-.63.05,0,.38-.02.86-.03v19.01s-.03,1.4-.03,1.4c-.26.04-.52.07-.77.09-.99.08-2.01.07-3.03-.05-3-.34-5.96-1.52-8.33-3.34-3.5-2.68-6.17-7.28-6.99-12.02-.57-3.29-.14-6.56,1.27-9.72ZM52.85,9.87c.14.67.22,1.39.23,2.14.06,5.53-3.81,11.39-10.92,16.52.4-5.09.75-8.78,1.12-11.58,1.01-5.5,3.32-7.83,4.97-9.1.09-.06,1.09-.69,2.2-.57.81.09,1.47.57,1.99,1.41.19.37.34.77.42,1.18ZM41.41,76.39c0-1.9-.04-4.2-.07-6.63-.05-4.03-.11-8.58-.11-13.06.1,0,.21.02.31.03.47.05.89.13,1.24.22,2.06.67,4.69,2.07,5.57,4.92.52,1.66.71,3.51.56,5.34-.37,3.11-1.92,5.2-3.15,6.41-1.42,1.26-2.99,2.26-4.35,2.78Z"/>
      <g>
        <path class="cls-1" d="M87.24,31.57h8.52v43.55h-8.52v-18.04h-16.18v18.04h-8.59V31.57h8.59v17.29h16.18v-17.29Z"/>
        <path class="cls-1" d="M103.85,31.57h8.59v43.55h-8.59V31.57Z"/>
        <path class="cls-1" d="M149.33,31.57v8.21h-11.76v35.34h-8.59v-35.34h-11.7v-8.21h32.04Z"/>
        <path class="cls-1" d="M179.57,75.12l-2.77-7.84h-17.89l-2.61,7.84h-9.27l15.24-43.55h10.64l15.36,43.55h-8.7ZM161.71,59.25h12.26l-6.28-17.79-5.97,17.79Z"/>
      </g>
      <g>
        <path class="cls-1" d="M103.05,82.09v17.28h-1.73v-14.67l-6.05,10.12h-.25l-6.05-10.12v14.67h-1.73v-17.28h2.12l5.78,9.67,5.78-9.67h2.12Z"/>
        <path class="cls-1" d="M125.22,97.99c-1.18,1.12-2.73,1.68-4.64,1.68s-3.46-.56-4.64-1.68c-1.18-1.12-1.78-2.62-1.78-4.49v-11.41h1.73v11.41c0,1.38.41,2.48,1.23,3.28.82.81,1.97,1.21,3.46,1.21s2.63-.4,3.46-1.21c.82-.81,1.23-1.9,1.23-3.28v-11.41h1.73v11.41c0,1.88-.59,3.37-1.78,4.49Z"/>
        <path class="cls-1" d="M143.54,99.67c-1.58,0-2.93-.37-4.06-1.12-1.13-.75-1.91-1.78-2.36-3.1l1.48-.86c.31,1.07.89,1.91,1.73,2.51.84.6,1.92.9,3.23.9s2.28-.28,3-.85c.72-.57,1.07-1.32,1.07-2.26s-.33-1.59-.99-2.05c-.66-.46-1.74-.94-3.26-1.43-1.79-.59-2.98-1.07-3.56-1.43-1.32-.79-1.98-1.93-1.98-3.43s.51-2.62,1.53-3.47c1.02-.85,2.28-1.27,3.78-1.27,1.35,0,2.52.35,3.51,1.05.99.7,1.72,1.59,2.2,2.68l-1.46.81c-.79-1.91-2.21-2.86-4.25-2.86-1.07,0-1.93.26-2.59.79-.66.53-.99,1.26-.99,2.2,0,.86.3,1.5.89,1.93.59.43,1.57.86,2.94,1.31.63.21,1.07.37,1.35.46.27.09.67.24,1.19.44s.9.39,1.15.54c.25.16.55.37.9.64.35.27.61.54.77.81.16.27.3.6.42.99.12.39.19.8.19,1.25,0,1.47-.54,2.64-1.6,3.52-1.07.88-2.48,1.32-4.22,1.32Z"/>
        <path class="cls-1" d="M159.62,82.09h1.73v17.28h-1.73v-17.28Z"/>
        <path class="cls-1" d="M180.77,99.67c-2.62,0-4.78-.86-6.49-2.59-1.71-1.73-2.57-3.84-2.57-6.35s.86-4.62,2.57-6.35c1.71-1.73,3.88-2.59,6.49-2.59,1.6,0,3.06.38,4.39,1.15,1.33.77,2.36,1.8,3.09,3.1l-1.53.89c-.54-1.05-1.35-1.89-2.42-2.52-1.07-.63-2.25-.94-3.53-.94-2.16,0-3.92.7-5.28,2.1-1.37,1.4-2.05,3.12-2.05,5.16s.68,3.76,2.05,5.16c1.37,1.4,3.13,2.1,5.28,2.1,1.28,0,2.46-.31,3.53-.94,1.07-.63,1.88-1.46,2.42-2.52l1.53.86c-.71,1.3-1.73,2.34-3.07,3.11s-2.81,1.16-4.41,1.16Z"/>
      </g>
      <path class="cls-1" d="M0,31.57h8.59v43.55H0V31.57Z"/>
    </g>
  </g>
</svg>