<svg xmlns="http://www.w3.org/2000/svg" viewBox="0 0 188.28 99.67"><defs><style>.cls-1{fill:#fff;}</style></defs><g id="Layer_2" data-name="Layer 2"><g id="Layer_1-2" data-name="Layer 1"><path class="cls-1" d="M54.21,63.35a13.82,13.82,0,0,0-3.64-10.26,13.64,13.64,0,0,0-4-3.08l0,0a12.75,12.75,0,0,0-4.42-1.31c-.23,0-.47,0-.7-.06,0-3.13.09-5.78.19-9.4,0-.48,0-1,0-1.43A25.82,25.82,0,0,0,54.32,22.37a32.49,32.49,0,0,0,1.2-13.44A12.67,12.67,0,0,0,51.28.57a4.12,4.12,0,0,0-.62-.39l-.2-.11v0A1.57,1.57,0,0,0,50.13,0h0a6.37,6.37,0,0,0-3.57,1.63C44.1,3.61,41,7.9,40,17.14h0c-.33,2.12-.5,8.34-.58,13.23-1.46.91-3,1.78-4.69,2.6A41.16,41.16,0,0,0,27,37.84a24.82,24.82,0,0,0-9.6,13.9,24.44,24.44,0,0,0-.86,7.6A22.08,22.08,0,0,0,21.1,71.63a19.19,19.19,0,0,0,13.28,7.66,22.25,22.25,0,0,0,5,0L39,87.14c-.2,4.54-1.86,6.39-2.83,7.09a7.74,7.74,0,0,1-.91.46l0,.09h0l0-.1a8.14,8.14,0,0,1-2.93.65,5.31,5.31,0,0,1-.69,0,7.78,7.78,0,0,1-3.95-1.79,5,5,0,1,0-5-5.51,5.17,5.17,0,0,0,0,.57h0a7,7,0,0,0,.87,3.34l.19.34a8.83,8.83,0,0,0,1.18,1.57,10.48,10.48,0,0,0,5.84,3.29l.24.05H31l.49.07.34,0h0a8.24,8.24,0,0,0,7.53-3.65,14.53,14.53,0,0,0,1.77-6.91l.06-1c.12-2,.26-4.15.28-6.79a19.81,19.81,0,0,0,5.15-2.13,9.32,9.32,0,0,0,.91-.6,14,14,0,0,0,3.76-3.89A17,17,0,0,0,54.21,63.35ZM21.42,52s2.74-5.71,11.8-10.43c1.07-.5,2.2-1,3.39-1.55l.93-.42,1.74-.79v9.83c-5.42.48-9.66,3.83-10.83,8.57a10.91,10.91,0,0,0,5,12.43l.68.37-.41-.66s-.2-.32-.47-.83l-.06,0,.06,0,0-.1c-.44-.88-2.5-5.41-.28-8.82a5.86,5.86,0,0,1,3-2.3,12.93,12.93,0,0,1,2.59-.63,8.5,8.5,0,0,1,.86,0v19l0,1.4-.77.09a15.38,15.38,0,0,1-3,0,17,17,0,0,1-8.33-3.34,19.82,19.82,0,0,1-7-12A16.71,16.71,0,0,1,21.42,52ZM52.85,9.87A11.23,11.23,0,0,1,53.08,12c.06,5.53-3.82,11.38-10.93,16.51.4-5.09.75-8.78,1.12-11.57,1-5.5,3.32-7.83,5-9.11a3.77,3.77,0,0,1,2.2-.57,2.69,2.69,0,0,1,2,1.42A4.73,4.73,0,0,1,52.85,9.87ZM41.41,76.39c0-1.9,0-4.2-.07-6.62-.05-4-.11-8.58-.1-13.07l.3,0a8.53,8.53,0,0,1,1.25.23c2.05.67,4.68,2.07,5.57,4.91a14,14,0,0,1,.55,5.34,10.69,10.69,0,0,1-3.14,6.41A15,15,0,0,1,41.41,76.39Z"/><path class="cls-1" d="M87.24,31.57h8.53V75.12H87.24V57.07H71.07V75.12H62.48V31.57h8.59V48.86H87.24Z"/><path class="cls-1" d="M103.85,31.57h8.59V75.12h-8.59Z"/><path class="cls-1" d="M149.33,31.57v8.21H137.57V75.12H129V39.78h-11.7V31.57Z"/><path class="cls-1" d="M179.57,75.12l-2.77-7.84H158.91l-2.61,7.84H147l15.24-43.55h10.64l15.37,43.55ZM161.71,59.25H174l-6.29-17.79Z"/><path class="cls-1" d="M103.05,82.09V99.37h-1.73V84.71l-6,10.12H95L89,84.71V99.37H87.25V82.09h2.12l5.78,9.68,5.78-9.68Z"/><path class="cls-1" d="M125.22,98a7.25,7.25,0,0,1-9.28,0,5.9,5.9,0,0,1-1.78-4.49V82.09h1.73V93.5a4.35,4.35,0,0,0,1.24,3.28,5.54,5.54,0,0,0,6.91,0,4.38,4.38,0,0,0,1.23-3.28V82.09H127V93.5A5.86,5.86,0,0,1,125.22,98Z"/><path class="cls-1" d="M143.54,99.67a7.16,7.16,0,0,1-4.06-1.12,5.87,5.87,0,0,1-2.36-3.1l1.49-.86a4.5,4.5,0,0,0,1.72,2.5,5.44,5.44,0,0,0,3.24.9,4.72,4.72,0,0,0,3-.85,2.75,2.75,0,0,0,1.07-2.26,2.34,2.34,0,0,0-1-2,12.8,12.8,0,0,0-3.26-1.43A19.35,19.35,0,0,1,139.84,90a3.78,3.78,0,0,1-2-3.43,4.23,4.23,0,0,1,1.54-3.47,5.68,5.68,0,0,1,3.77-1.27,6,6,0,0,1,3.51,1,6.43,6.43,0,0,1,2.2,2.68l-1.46.82a4.27,4.27,0,0,0-4.25-2.87,4.06,4.06,0,0,0-2.59.79,2.66,2.66,0,0,0-1,2.2,2.23,2.23,0,0,0,.89,1.93,11.28,11.28,0,0,0,2.94,1.31l1.34.45c.28.09.67.24,1.19.45a6.7,6.7,0,0,1,1.15.54c.24.16.55.37.9.64a2.84,2.84,0,0,1,.76.82,4.6,4.6,0,0,1,.42,1,3.84,3.84,0,0,1,.19,1.24,4.33,4.33,0,0,1-1.61,3.52A6.42,6.42,0,0,1,143.54,99.67Z"/><path class="cls-1" d="M159.62,82.09h1.72V99.37h-1.72Z"/><path class="cls-1" d="M180.77,99.67a8.94,8.94,0,1,1,4.4-16.73,8.14,8.14,0,0,1,3.09,3.1l-1.53.89a6.23,6.23,0,0,0-2.42-2.52,6.94,6.94,0,0,0-3.54-.94,7.26,7.26,0,1,0,0,14.52,6.84,6.84,0,0,0,3.54-.94,6.15,6.15,0,0,0,2.42-2.51l1.53.86a7.94,7.94,0,0,1-3.08,3.11A8.7,8.7,0,0,1,180.77,99.67Z"/><path class="cls-1" d="M0,31.57H8.59V75.12H0Z"/></g></g></svg>