<?xml version="1.0" encoding="UTF-8"?>
<svg id="Layer_2" xmlns="http://www.w3.org/2000/svg" viewBox="0 0 44.91 44.91">
  <g id="Layer_1-2" data-name="Layer_1">
    <g>
      <path d="M0,23.86c0-.94,0-1.87,0-2.81.07-.55.12-1.1.2-1.65.71-4.88,2.75-9.12,6.21-12.63C10.66,2.47,15.83.21,21.87.01c4.25-.14,8.25.84,11.88,3.06,7.09,4.33,10.85,10.69,11.14,19,.15,4.21-.92,8.17-3.12,11.78-3.56,5.85-8.71,9.44-15.45,10.71-.81.15-1.64.23-2.46.34h-2.81c-.55-.07-1.1-.13-1.64-.2-4.5-.64-8.47-2.45-11.86-5.49-3.86-3.46-6.28-7.74-7.2-12.85C.2,25.54.11,24.69,0,23.86ZM22.47,3.75c-10.32-.02-18.71,8.37-18.72,18.7,0,10.31,8.32,18.66,18.67,18.71,10.3.05,18.71-8.33,18.74-18.68.03-10.31-8.35-18.71-18.69-18.73Z"/>
      <path d="M16.84,22.43c0-2.31.02-4.62-.01-6.93,0-.47.14-.55.56-.54.93.03,1.87.02,2.8,0,.29,0,.41.07.4.39,0,4.73,0,9.47,0,14.2,0,.28-.07.39-.37.38-.99-.02-1.99-.02-2.98,0-.32,0-.42-.08-.42-.41.02-2.37,0-4.73,0-7.1Z"/>
      <path d="M28.07,22.45c0,2.35,0,4.7,0,7.06,0,.35-.1.44-.44.43-.96-.02-1.93-.02-2.89,0-.3,0-.44-.05-.43-.4.01-4.72.01-9.44,0-14.16,0-.34.11-.41.43-.41.98.02,1.96.02,2.94,0,.35,0,.4.12.4.43-.01,2.35,0,4.7,0,7.06Z"/>
    </g>
  </g>
</svg>