<?xml version="1.0" encoding="UTF-8"?>
<svg id="Layer_2" xmlns="http://www.w3.org/2000/svg" viewBox="0 0 20.24 20.2">
  <defs>
    <style>
      .cls-1 {
        fill: #fff;
      }
    </style>
  </defs>
  <g id="Layer_1-2" data-name="Layer_1">
    <g>
      <path class="cls-1" d="M11.24,8.52c.15-.21.27-.42.43-.6.75-.87,1.7-1.36,2.83-1.51.96-.12,1.9-.04,2.82.26,1.09.36,1.85,1.08,2.3,2.13.47,1.09.6,2.24.61,3.41.02,2.57,0,5.14.02,7.71,0,.22-.06.28-.27.27-1.23-.01-2.46,0-3.69,0-.18,0-.24-.04-.24-.24,0-2.26,0-4.53,0-6.79,0-.51-.04-1.02-.16-1.52-.25-1.03-.83-1.53-1.9-1.58-.76-.04-1.47.12-1.98.75-.29.36-.45.78-.53,1.22-.16.85-.11,1.7-.12,2.56,0,1.79,0,3.58,0,5.37,0,.18-.06.23-.23.22-1.25,0-2.5,0-3.76,0-.16,0-.22-.04-.22-.21,0-2.57,0-5.14,0-7.71,0-1.75,0-3.51,0-5.26,0-.32,0-.32.31-.32,1.15,0,2.31,0,3.46,0,.21,0,.27.06.26.27-.01.44,0,.88,0,1.33,0,.07-.02.15.05.24Z"/>
      <path class="cls-1" d="M4.53,13.46c0,2.16,0,4.32,0,6.47,0,.2-.04.27-.26.27-1.23-.01-2.46,0-3.69,0-.2,0-.26-.05-.26-.26,0-4,0-8,0-12,0-.34,0-.69,0-1.03,0-.15.04-.21.2-.21,1.27,0,2.55,0,3.82,0,.18,0,.18.09.18.23,0,1.61,0,3.22,0,4.83,0,.57,0,1.14,0,1.71Z"/>
      <path class="cls-1" d="M4.86,2.42c.02,1.31-1.07,2.42-2.38,2.43C1.12,4.88.02,3.81,0,2.46-.02,1.1,1.05.02,2.42,0c1.33-.02,2.41,1.06,2.43,2.42Z"/>
    </g>
  </g>
</svg>