<?xml version="1.0" encoding="UTF-8"?>
<svg id="Layer_2" xmlns="http://www.w3.org/2000/svg" viewBox="0 0 20.87 20.87">
  <defs>
    <style>
      .cls-1 {
        fill: #fff;
      }
    </style>
  </defs>
  <g id="Layer_1-2" data-name="Layer_1">
    <g>
      <path class="cls-1" d="M15.96,3.73c-.68,0-1.22.55-1.22,1.22s.55,1.22,1.22,1.22,1.22-.55,1.22-1.22-.55-1.22-1.22-1.22Z"/>
      <path class="cls-1" d="M10.52,5.3c-2.83,0-5.14,2.31-5.14,5.14s2.31,5.14,5.14,5.14,5.14-2.31,5.14-5.14-2.31-5.14-5.14-5.14ZM10.52,13.73c-1.82,0-3.29-1.48-3.29-3.29s1.48-3.29,3.29-3.29,3.29,1.48,3.29,3.29-1.48,3.29-3.29,3.29Z"/>
      <path class="cls-1" d="M14.6,20.87H6.27c-3.46,0-6.27-2.81-6.27-6.27V6.27C0,2.81,2.81,0,6.27,0h8.33c3.46,0,6.27,2.81,6.27,6.27v8.33c0,3.46-2.81,6.27-6.27,6.27ZM6.27,1.96C3.89,1.96,1.96,3.89,1.96,6.27v8.33c0,2.37,1.93,4.31,4.31,4.31h8.33c2.37,0,4.31-1.93,4.31-4.31V6.27c0-2.37-1.93-4.3-4.31-4.3H6.27Z"/>
    </g>
  </g>
</svg>