<?xml version="1.0" encoding="UTF-8"?>
<svg id="Layer_2" xmlns="http://www.w3.org/2000/svg" xmlns:xlink="http://www.w3.org/1999/xlink" viewBox="0 0 46.4 46.4">
  <defs>
    <style>
      .cls-1 {
        fill: url(#linear-gradient-2);
      }

      .cls-1, .cls-2, .cls-3, .cls-4, .cls-5, .cls-6 {
        fill-rule: evenodd;
      }

      .cls-2 {
        fill: #fff;
      }

      .cls-3 {
        fill: url(#radial-gradient);
      }

      .cls-4 {
        fill: url(#linear-gradient);
      }

      .cls-5 {
        fill: url(#radial-gradient-2);
      }

      .cls-6 {
        fill: #bb58bb;
      }
    </style>
    <linearGradient id="linear-gradient" x1="-8797.92" y1="-6598.72" x2="-8751.52" y2="-6598.72" gradientTransform="translate(-6575.52 -8751.52) rotate(-90) scale(1 -1)" gradientUnits="userSpaceOnUse">
      <stop offset="0" stop-color="#fd355a"/>
      <stop offset="1" stop-color="#fd5163"/>
    </linearGradient>
    <radialGradient id="radial-gradient" cx="-6142.23" cy="-773.73" fx="-6142.23" fy="-773.73" r=".61" gradientTransform="translate(-24661.63 195924.68) rotate(90) scale(31.89)" gradientUnits="userSpaceOnUse">
      <stop offset="0" stop-color="#7470f9"/>
      <stop offset="1" stop-color="#7a70fe" stop-opacity="0"/>
    </radialGradient>
    <radialGradient id="radial-gradient-2" cx="-6440.07" cy="-403.35" fx="-6440.07" fy="-403.35" r=".5" gradientTransform="translate(-42595.34 -201297.62) rotate(-105.54) scale(31.89)" gradientUnits="userSpaceOnUse">
      <stop offset="0" stop-color="#4ca3f8"/>
      <stop offset=".36" stop-color="#4ca4f7"/>
      <stop offset="1" stop-color="#4aa2f9" stop-opacity="0"/>
    </radialGradient>
    <linearGradient id="linear-gradient-2" x1="-6060.34" y1="-469.43" x2="-6060.19" y2="-469.09" gradientTransform="translate(193296.93 18728.67) scale(31.89 39.87)" gradientUnits="userSpaceOnUse">
      <stop offset="0" stop-color="#ff6380"/>
      <stop offset="1" stop-color="#f65e79" stop-opacity="0"/>
    </linearGradient>
  </defs>
  <g id="Layer_1-2" data-name="Layer_1">
    <g>
      <path class="cls-4" d="M36.35,46.4H10.05C4.51,46.42.01,41.93,0,36.39c0-.01,0-.03,0-.04V10.05C-.01,4.51,4.47.01,10.01,0c.01,0,.03,0,.04,0h26.3c5.54-.01,10.04,4.47,10.05,10.01,0,.01,0,.03,0,.04v26.3c.01,5.54-4.47,10.04-10.01,10.05-.01,0-.03,0-.04,0Z"/>
      <g>
        <path class="cls-6" d="M34.03,28.04v1.35c0,.87-.08,1.74-.23,2.59-.15.88-.65,1.66-1.39,2.17h-.04c-.77.59-1.7.92-2.67.97l-.73.08c-1.17.07-2.3-.42-3.05-1.31-.79-.95-.99-2.25-.54-3.4v-.04c.41-1.12,1.35-1.96,2.51-2.24l2.9-.77c.75-.18,1.28-.85,1.28-1.62v-1.97h0v-8.31c0-.19-.08-.38-.23-.5-.16-.11-.35-.16-.54-.12l-12.37,2.51c-.45.07-.78.47-.77.93v13.23h0v.97c0,.87-.08,1.74-.23,2.59-.15.88-.65,1.66-1.39,2.17h-.04c-.77.59-1.7.92-2.67.97l-.7.04c-1.17.07-2.3-.42-3.05-1.31-.79-.95-.99-2.25-.54-3.4v-.04c.41-1.12,1.35-1.96,2.51-2.24l2.9-.77c.75-.18,1.28-.85,1.28-1.62v-1.97h0v-15.35c0-.68.49-1.26,1.16-1.39l15.51-2.82c.29-.03.57.04.81.19.22.18.35.45.35.73v19.76Z"/>
        <path class="cls-3" d="M34.03,28.04v1.35c0,.87-.08,1.74-.23,2.59-.15.88-.65,1.66-1.39,2.17h-.04c-.77.59-1.7.92-2.67.97l-.73.08c-1.17.07-2.3-.42-3.05-1.31-.79-.95-.99-2.25-.54-3.4v-.04c.41-1.12,1.35-1.96,2.51-2.24l2.9-.77c.75-.18,1.28-.85,1.28-1.62v-1.97h0v-8.31c0-.19-.08-.38-.23-.5-.16-.11-.35-.16-.54-.12l-12.37,2.51c-.45.07-.78.47-.77.93v13.23h0v.97c0,.87-.08,1.74-.23,2.59-.15.88-.65,1.66-1.39,2.17h-.04c-.77.59-1.7.92-2.67.97l-.7.04c-1.17.07-2.3-.42-3.05-1.31-.79-.95-.99-2.25-.54-3.4v-.04c.41-1.12,1.35-1.96,2.51-2.24l2.9-.77c.75-.18,1.28-.85,1.28-1.62v-1.97h0v-15.35c0-.68.49-1.26,1.16-1.39l15.51-2.82c.29-.03.57.04.81.19.22.18.35.45.35.73v19.76Z"/>
        <path class="cls-5" d="M34.03,28.04v1.35c0,.87-.08,1.74-.23,2.59-.15.88-.65,1.66-1.39,2.17h-.04c-.77.59-1.7.92-2.67.97l-.73.08c-1.17.07-2.3-.42-3.05-1.31-.79-.95-.99-2.25-.54-3.4v-.04c.41-1.12,1.35-1.96,2.51-2.24l2.9-.77c.75-.18,1.28-.85,1.28-1.62v-1.97h0v-8.31c0-.19-.08-.38-.23-.5-.16-.11-.35-.16-.54-.12l-12.37,2.51c-.45.07-.78.47-.77.93v13.23h0v.97c0,.87-.08,1.74-.23,2.59-.15.88-.65,1.66-1.39,2.17h-.04c-.77.59-1.7.92-2.67.97l-.7.04c-1.17.07-2.3-.42-3.05-1.31-.79-.95-.99-2.25-.54-3.4v-.04c.41-1.12,1.35-1.96,2.51-2.24l2.9-.77c.75-.18,1.28-.85,1.28-1.62v-1.97h0v-15.35c0-.68.49-1.26,1.16-1.39l15.51-2.82c.29-.03.57.04.81.19.22.18.35.45.35.73v19.76Z"/>
        <path class="cls-1" d="M34.03,28.04v1.35c0,.87-.08,1.74-.23,2.59-.15.88-.65,1.66-1.39,2.17h-.04c-.77.59-1.7.92-2.67.97l-.73.08c-1.17.07-2.3-.42-3.05-1.31-.79-.95-.99-2.25-.54-3.4v-.04c.41-1.12,1.35-1.96,2.51-2.24l2.9-.77c.75-.18,1.28-.85,1.28-1.62v-1.97h0v-8.31c0-.19-.08-.38-.23-.5-.16-.11-.35-.16-.54-.12l-12.37,2.51c-.45.07-.78.47-.77.93v13.23h0v.97c0,.87-.08,1.74-.23,2.59-.15.88-.65,1.66-1.39,2.17h-.04c-.77.59-1.7.92-2.67.97l-.7.04c-1.17.07-2.3-.42-3.05-1.31-.79-.95-.99-2.25-.54-3.4v-.04c.41-1.12,1.35-1.96,2.51-2.24l2.9-.77c.75-.18,1.28-.85,1.28-1.62v-1.97h0v-15.35c0-.68.49-1.26,1.16-1.39l15.51-2.82c.29-.03.57.04.81.19.22.18.35.45.35.73v19.76Z"/>
        <path class="cls-2" d="M34.03,28.04v1.35c0,.87-.08,1.74-.23,2.59-.15.88-.65,1.66-1.39,2.17h-.04c-.77.59-1.7.92-2.67.97l-.73.08c-1.17.07-2.3-.42-3.05-1.31-.79-.95-.99-2.25-.54-3.4v-.04c.41-1.12,1.35-1.96,2.51-2.24l2.9-.77c.75-.18,1.28-.85,1.28-1.62v-1.97h0v-8.31c0-.19-.08-.38-.23-.5-.16-.11-.35-.16-.54-.12l-12.37,2.51c-.45.07-.78.47-.77.93v13.23h0v.97c0,.87-.08,1.74-.23,2.59-.15.88-.65,1.66-1.39,2.17h-.04c-.77.59-1.7.92-2.67.97l-.7.04c-1.17.07-2.3-.42-3.05-1.31-.79-.95-.99-2.25-.54-3.4v-.04c.41-1.12,1.35-1.96,2.51-2.24l2.9-.77c.75-.18,1.28-.85,1.28-1.62v-1.97h0v-15.35c0-.68.49-1.26,1.16-1.39l15.51-2.82c.29-.03.57.04.81.19.22.18.35.45.35.73v19.76Z"/>
      </g>
    </g>
  </g>
</svg>