<svg xmlns="http://www.w3.org/2000/svg" viewBox="0 0 210 22.05"><defs><style>.cls-1{fill:#fff;}</style></defs><g id="Layer_2" data-name="Layer 2"><g id="Layer_1-2" data-name="Layer 1"><path class="cls-1" d="M59,4.9A1.23,1.23,0,1,0,60.2,6.13,1.23,1.23,0,0,0,59,4.9Z"/><path class="cls-1" d="M53.53,6.47a5.14,5.14,0,1,0,5.14,5.14A5.15,5.15,0,0,0,53.53,6.47Zm0,8.43a3.29,3.29,0,1,1,3.3-3.29A3.29,3.29,0,0,1,53.53,14.9Z"/><path class="cls-1" d="M57.61,22.05H49.28A6.29,6.29,0,0,1,43,15.78V7.45a6.28,6.28,0,0,1,6.27-6.27h8.33a6.27,6.27,0,0,1,6.27,6.27v8.33A6.28,6.28,0,0,1,57.61,22.05ZM49.28,3.14A4.31,4.31,0,0,0,45,7.45v8.33a4.31,4.31,0,0,0,4.3,4.3h8.33a4.31,4.31,0,0,0,4.31-4.3V7.45a4.31,4.31,0,0,0-4.31-4.31Z"/><path class="cls-1" d="M10.45,12.92,11,9.14H7.4V6.69a1.89,1.89,0,0,1,2.13-2h1.65V1.43a20.61,20.61,0,0,0-2.93-.25c-3,0-4.93,1.81-4.93,5.08V9.14H0v3.78H3.32v9.13H7.4V12.92Z"/><path class="cls-1" d="M113,4.26a9.82,9.82,0,0,1-2.38.68c.38-.07.94-.76,1.17-1a4.31,4.31,0,0,0,.79-1.44s0-.09,0-.12a.13.13,0,0,0-.12,0,12.35,12.35,0,0,1-2.82,1.08.18.18,0,0,1-.19-.05,3,3,0,0,0-.25-.25,5,5,0,0,0-1.37-.84A4.82,4.82,0,0,0,105.69,2a5.06,5.06,0,0,0-2,.56,5.25,5.25,0,0,0-1.61,1.31,4.94,4.94,0,0,0-.95,1.92,5.09,5.09,0,0,0-.05,2c0,.11,0,.13-.1.11A15,15,0,0,1,91.32,3c-.11-.13-.17-.13-.27,0a4.91,4.91,0,0,0,.84,5.8,7.31,7.31,0,0,0,.59.52,4.94,4.94,0,0,1-1.86-.52c-.12-.07-.17,0-.18.09a2.67,2.67,0,0,0,0,.56,5,5,0,0,0,3.06,4,3.19,3.19,0,0,0,.62.19,5.49,5.49,0,0,1-1.83,0c-.14,0-.19,0-.14.17A5.15,5.15,0,0,0,96,17c.18,0,.35,0,.53.08,0,0,0,0,0,0-.43.66-1.93,1.15-2.62,1.39a9.55,9.55,0,0,1-4,.51c-.21,0-.26,0-.31,0s0,.09.06.14c.27.18.55.34.83.5a12.81,12.81,0,0,0,2.67,1.06A14.2,14.2,0,0,0,107,17.49c2.82-2.81,3.82-6.69,3.82-10.57,0-.15.17-.23.28-.31a9.39,9.39,0,0,0,1.88-1.95.62.62,0,0,0,.12-.38v0C113.05,4.2,113.05,4.22,113,4.26Z"/><path class="cls-1" d="M150.28,8.52a6.9,6.9,0,0,1,.43-.59,4.34,4.34,0,0,1,2.83-1.51,6.42,6.42,0,0,1,2.82.26,3.67,3.67,0,0,1,2.3,2.12,8.69,8.69,0,0,1,.61,3.41c0,2.57,0,5.15,0,7.72,0,.21-.06.27-.28.27h-3.69c-.18,0-.24-.05-.24-.24q0-3.39,0-6.79a7,7,0,0,0-.16-1.51,1.84,1.84,0,0,0-1.9-1.59,2.24,2.24,0,0,0-2,.75,2.66,2.66,0,0,0-.53,1.23,13.58,13.58,0,0,0-.12,2.55V20c0,.18-.05.22-.23.22h-3.75c-.16,0-.22,0-.22-.21V7c0-.31,0-.31.32-.31H150c.21,0,.26.07.26.27,0,.44,0,.88,0,1.33A.29.29,0,0,0,150.28,8.52Z"/><path class="cls-1" d="M143.58,13.46c0,2.16,0,4.32,0,6.47,0,.2,0,.27-.26.27h-3.68c-.2,0-.27-.05-.27-.26q0-6,0-12c0-.34,0-.69,0-1,0-.15,0-.21.19-.21h3.82c.19,0,.19.09.19.22v6.54Z"/><path class="cls-1" d="M143.9,2.42A2.43,2.43,0,1,1,141.47,0,2.44,2.44,0,0,1,143.9,2.42Z"/><path class="cls-1" d="M197,21c-2.71,0-5.43.13-8.14-.13a12.1,12.1,0,0,1-2.07-.35,3,3,0,0,1-2.25-2.44,19.68,19.68,0,0,1-.46-4.18,45.25,45.25,0,0,1,.22-6.79,10.38,10.38,0,0,1,.4-1.82,2.88,2.88,0,0,1,2.16-1.93,17.25,17.25,0,0,1,3.85-.46q6.15-.17,12.31,0a21.38,21.38,0,0,1,4.06.44,3.06,3.06,0,0,1,2.42,2.47,20.16,20.16,0,0,1,.47,4.3,43.67,43.67,0,0,1-.22,6.67,10.08,10.08,0,0,1-.4,1.81,2.85,2.85,0,0,1-2.18,2,16.33,16.33,0,0,1-3.81.45C201.24,21,199.12,21,197,21Zm-2.65-5.69,7-3.62-7-3.67Z"/></g></g></svg>