<svg xmlns="http://www.w3.org/2000/svg" viewBox="0 0 177.59 59.74"><defs><style>.cls-1{fill:#fff;}</style></defs><g id="Layer_2" data-name="Layer 2"><g id="Layer_1-2" data-name="Layer 1"><path class="cls-1" d="M22.86,55.72c-4.67,1.34-10.12-2-14.37-3.75-2.83-1.13-4.95-.21-7.57-.78C0,51-.42,49.71.57,49.35c1.48-.56,4.46,0,6.08.21,6.87.85,14.44.43,21.37.43l.43-.5c6.36-7.14,12.09-15.42,17.47-23.42-.92.29-1.63-1-.49-1.69.56-.36.7-.43.7-1.21,0-2-3.67-3.61-5.23-4.38-5-2.55-10-2.69-15.43-2.91a.86.86,0,0,1-.92-.77c0-1.42,11.4-1.84,13.45-2,5.59-.43,11.18-.71,16.84-.92.35-.36.35-.71.63-1.07,1-1.34,2.34.57,1.42.92,5,0,22.15-.85,25.68-.14,1.21.21,1.35,1.63,0,1.84-3,.43-9-.07-12.45-.07-4.74,0-9.48.07-14.22.14C48.26,26.14,39.84,39.09,30.29,50c2.54.07,5.16.07,7.71.07,5.66,0,11.32-.07,17-.28,2.19,0,4.81-.43,6.93-.22a.85.85,0,0,1,0,1.7c-3.46.64-9.69.29-13.44.36-6.58.14-13.16.14-19.74.14C26.46,53.1,26.25,54.73,22.86,55.72ZM11.75,51.4c5.45,2.62,9.34,4.74,14.57.36C21.51,51.83,16.56,51.47,11.75,51.4ZM48,23.17c2-3,4-6.08,5.88-9.2a178.64,178.64,0,0,0-18.47,1.14C38.85,16,47.62,19,48,23.17Z"/><path class="cls-1" d="M66.08,39.66c3.9-1.35,9.84-3.26,13.45-3.54a.89.89,0,1,1,.07,1.77,58.4,58.4,0,0,0-12.88,3.32,2,2,0,0,1-.07.64c-1.06,4.39-12,10.12-14.79,9.48a1.49,1.49,0,0,1-1.27-1.41c-.43-2.27,3.82-4.32,5.59-5.31,2.62-1.56,5.66-2.76,8.21-4.39l-.07-.07c-1.21-.63-3-1-4-2-5-5.59,18.05-13.23,16.49-5.45a.87.87,0,0,1-.92.78c-1.13-.07-.35-1.34-1.2-2-1.14-.85-2.48-.42-3.68-.21-1.49.35-6.87,1.7-8.85,3.68-1.34,1.27-.42,2.33,1,2.83A8.78,8.78,0,0,1,66.08,39.66ZM54.34,49.07c2.62-.85,9.9-4.46,10.61-7.22-2.47,1.63-11.32,5.52-12.73,7.5l-.07.36A21.82,21.82,0,0,1,54.34,49.07Z"/><path class="cls-1" d="M112.71,39.38c-3.11,2-7.71,5-11.74,5.44A5.64,5.64,0,0,1,96.15,43c-3-3.39,1.42-7.78-.7-9.41-1.7-1.27-8.35,2.48-10.12,3.54-3.4,2-5.94,4.67-9.06,6.94A.9.9,0,0,1,74.86,43c.21-.42.85-1.06,1.13-1.48a61.47,61.47,0,0,0,4.1-6.58c-1.84-1.13,1.06-2.2,1.84-2.55C90.92,20.48,101,9.45,114.2,2.16c1.91-1.06,4.88-2.9,7.14-1.84a.85.85,0,0,1,.5.85c.07,3.25-3.4,6.72-5.66,8.7C106,18.71,95,27.42,83,33.71l-3.11,5C82.57,36.55,93,30,96.15,32c4,2.54-.63,6.86,1.14,9.62a3.69,3.69,0,0,0,4,1.34c2.19-.35,5-1.55,9.27-4.17,1.06-.71,2-1.63,3-2.26s1.77.56,1,1.41A12.43,12.43,0,0,1,112.71,39.38Zm2.76-31.14c1.91-1.7,4.1-3.75,4.53-6.44-1.13-.35-3.33.85-4.25,1.42C105.14,9.59,94.53,18.15,87.17,28.27c-.5.63-.92,1.27-1.49,1.91C95.66,25.22,107.05,15.67,115.47,8.24Z"/><path class="cls-1" d="M116.6,43.05c5.09-.92,9.2-4,14.43-6.58.85-.42,1.63,1.07.57,1.63a73.12,73.12,0,0,1-13.94,6.51,6.07,6.07,0,0,1-3.89.28c-5.09-1.27-.14-9.48,2-11.6A.85.85,0,0,1,117,34.42C113,40.51,111.29,44.05,116.6,43.05Zm1.27-13.16a8,8,0,0,1,1.56-1.41.91.91,0,0,1,1.49.35c.14.36-.07.64-.5,1.06s-.92.78-1.34,1.14C118.3,31.8,117.24,30.81,117.87,29.89Z"/><path class="cls-1" d="M139,27.84c-4.11,4.81-14.51,18.82-18.47,23.71-2.12,2.47-4.17,5.73-6.51,7.92-.35.28-.92.42-1.2,0-.57-.35-.28-.78,0-1.13,5.8-7.57,18.4-24.06,24.55-31.35-.28-.35-.57-1.13.14-1.27a2.58,2.58,0,0,0,.92-2.83c-.63-2.26-4.24-3.75-6.37-4.25-3.11-.7-6.43-.14-9.62-.49a.79.79,0,0,1-.78-.78l.57-.92c2,.14,4.1-.28,6.23-.07,5.73.5,11.53.57,17.26.78a32,32,0,0,0,3.68-3.89,72.38,72.38,0,0,1,6.3-7c.85-.78,1.77.28,1.2,1.2-1.49,2.34-6.51,6.8-9.06,9.7l1.84.14c4,.21,14.29.07,17.41.64,1.13.21,1.2,1.62,0,1.77-3,.35-16.42-.71-20.45-.85C144,21.76,141.51,24.87,139,27.84Zm1.27-4.24,4-4.74a57.18,57.18,0,0,0-7.85-.29A5.92,5.92,0,0,1,140.23,23.6Z"/><path class="cls-1" d="M143.27,42.84A2.73,2.73,0,0,1,141,41.43c-1.84-3.33,6.79-8.35,9.2-9.7,2.83-1.55,7.71-3.25,11-3.25,1.91,0,4,.85,4.53,2.83.92,3.68-3.61,4.67-3.61,2.9,0-.5.43-1,.92-.78.64,0,1-.64,1.21-1.13-.07-5.38-13.16.78-15.15,1.91-1.13.64-6.79,4.88-6.58,6.23.15,1.55,3.19-.07,3.75-.29,1.77-.7,3.33-1.48,5-2.33,3.32-1.7,6.3-4,9.55-5.73a.87.87,0,0,1,1,1.41c-1.27,1.35-6.93,6.94-3.68,8.35,4.46,1.91,14.93-3.89,18.19-5.73.42-.21.92-.21,1.13.21a.88.88,0,0,1-.36,1.28c-4.88,2.83-13.51,6.65-17.9,6.36a4.9,4.9,0,0,1-3.25-1.69c-1.42-1.77-.07-4,1-5.66C154.59,38,145.61,43,143.27,42.84Z"/></g></g></svg>